<svg width="80" height="61" viewBox="0 0 80 61" fill="none" xmlns="http://www.w3.org/2000/svg">
<path d="M5.58 33V17.88H0.15V13.68H16.65V17.88H11.22V33H5.58ZM21.1371 33V13.68H26.7771V33H21.1371ZM32.4867 33V13.68H37.2867L44.5767 23.91V13.68H50.2167V33H45.3867L38.1267 22.8V33H32.4867ZM61.6807 33V25.92L54.7207 13.68H60.6007L64.5007 20.97L68.4007 13.68H74.2807L67.3207 25.92V33H61.6807Z" fill="#FFFFF1"/>
<path d="M4.785 60V37.46H10.35L16.475 49.955L22.565 37.46H28.095V60H22.46V47.05L18.015 56.15H14.9L10.42 47.05V60H4.785ZM29.9002 60V37.46H35.5352V60H29.9002ZM48.7546 60.35C44.8112 60.35 41.8012 59.3467 39.7246 57.34C37.6712 55.31 36.6446 52.4983 36.6446 48.905C36.6446 45.1483 37.6479 42.2433 39.6546 40.19C41.6846 38.1367 44.7062 37.11 48.7196 37.11C50.0962 37.11 51.3212 37.215 52.3946 37.425C53.4912 37.635 54.5412 37.915 55.5446 38.265V43.2C53.5146 42.36 51.3796 41.94 49.1396 41.94C46.8062 41.94 45.0912 42.5 43.9946 43.62C42.9212 44.74 42.3846 46.5017 42.3846 48.905C42.3846 51.1917 42.9562 52.8717 44.0996 53.945C45.2429 55.0183 46.9462 55.555 49.2096 55.555C50.3062 55.555 51.3912 55.4617 52.4646 55.275C53.5379 55.065 54.5762 54.75 55.5796 54.33V59.3C54.5996 59.6267 53.5612 59.8833 52.4646 60.07C51.3679 60.2567 50.1312 60.35 48.7546 60.35ZM63.8584 60.35C62.3651 60.35 60.9651 60.2333 59.6584 60C58.3751 59.79 57.2668 59.475 56.3334 59.055V54.26C57.3601 54.7033 58.4918 55.065 59.7284 55.345C60.9884 55.625 62.1784 55.765 63.2984 55.765C64.6984 55.765 65.7368 55.6367 66.4134 55.38C67.1134 55.1233 67.4634 54.5633 67.4634 53.7C67.4634 53.1167 67.2884 52.65 66.9384 52.3C66.6118 51.95 66.0634 51.6467 65.2934 51.39C64.5468 51.11 63.5201 50.7833 62.2134 50.41C60.6734 49.9433 59.4484 49.43 58.5384 48.87C57.6284 48.2867 56.9751 47.5867 56.5784 46.77C56.1818 45.9533 55.9834 44.95 55.9834 43.76C55.9834 41.6133 56.7534 39.9683 58.2934 38.825C59.8334 37.6817 62.1084 37.11 65.1184 37.11C66.4251 37.11 67.6968 37.215 68.9334 37.425C70.1701 37.6117 71.1734 37.8333 71.9434 38.09V42.92C70.9401 42.5233 69.9251 42.2317 68.8984 42.045C67.8951 41.8583 66.9151 41.765 65.9584 41.765C64.6984 41.765 63.6718 41.8817 62.8784 42.115C62.1084 42.3483 61.7234 42.885 61.7234 43.725C61.7234 44.215 61.8634 44.6117 62.1434 44.915C62.4234 45.195 62.9018 45.4517 63.5784 45.685C64.2784 45.9183 65.2234 46.1983 66.4134 46.525C68.2568 47.015 69.6684 47.61 70.6484 48.31C71.6284 48.9867 72.3051 49.78 72.6784 50.69C73.0518 51.5767 73.2384 52.58 73.2384 53.7C73.2384 55.6833 72.4684 57.2933 70.9284 58.53C69.3884 59.7433 67.0318 60.35 63.8584 60.35ZM73.6475 60V55.87H78.1625V60H73.6475Z" fill="#FFFFF1"/>
</svg>
