<svg width="596" height="66" viewBox="0 0 596 66" fill="none" xmlns="http://www.w3.org/2000/svg">
<path d="M11.6818 52.0666C11.0682 52.0666 10.544 51.8904 10.1094 51.5382C9.67756 51.1831 9.34517 50.6703 9.11222 49.9998C8.8821 49.3294 8.76705 48.524 8.76705 47.5836C8.76705 46.6461 8.8821 45.8436 9.11222 45.176C9.34517 44.5055 9.67898 43.9927 10.1136 43.6376C10.5511 43.2797 11.0739 43.1007 11.6818 43.1007C12.2898 43.1007 12.8111 43.2797 13.2457 43.6376C13.6832 43.9927 14.017 44.5055 14.2472 45.176C14.4801 45.8436 14.5966 46.6461 14.5966 47.5836C14.5966 48.524 14.4801 49.3294 14.2472 49.9998C14.017 50.6703 13.6847 51.1831 13.25 51.5382C12.8182 51.8904 12.2955 52.0666 11.6818 52.0666ZM11.6818 51.3507C12.3551 51.3507 12.8807 51.0225 13.2585 50.3663C13.6364 49.7072 13.8253 48.7797 13.8253 47.5836C13.8253 46.7882 13.7386 46.1092 13.5653 45.5467C13.3949 44.9814 13.1491 44.5495 12.8281 44.2512C12.5099 43.9529 12.1278 43.8038 11.6818 43.8038C11.0142 43.8038 10.4901 44.1362 10.1094 44.801C9.72869 45.4629 9.53835 46.3904 9.53835 47.5836C9.53835 48.3791 9.62358 49.0581 9.79403 49.6206C9.96733 50.1831 10.2131 50.612 10.5312 50.9075C10.8523 51.2029 11.2358 51.3507 11.6818 51.3507ZM16.9659 50.639C16.7983 50.639 16.6534 50.5794 16.5312 50.46C16.4119 50.3379 16.3523 50.193 16.3523 50.0254C16.3523 49.8549 16.4119 49.71 16.5312 49.5907C16.6534 49.4714 16.7983 49.4118 16.9659 49.4118C17.1364 49.4118 17.2812 49.4714 17.4006 49.5907C17.5199 49.71 17.5795 49.8549 17.5795 50.0254C17.5795 50.1362 17.5511 50.2385 17.4943 50.3322C17.4403 50.426 17.3665 50.5012 17.2727 50.5581C17.1818 50.612 17.0795 50.639 16.9659 50.639ZM16.9659 46.2115C16.7983 46.2115 16.6534 46.1518 16.5312 46.0325C16.4119 45.9103 16.3523 45.7654 16.3523 45.5978C16.3523 45.4302 16.4119 45.2868 16.5312 45.1674C16.6534 45.0453 16.7983 44.9842 16.9659 44.9842C17.1364 44.9842 17.2812 45.0453 17.4006 45.1674C17.5199 45.2868 17.5795 45.4302 17.5795 45.5978C17.5795 45.7086 17.5511 45.8109 17.4943 45.9047C17.4403 45.9984 17.3665 46.0737 17.2727 46.1305C17.1818 46.1845 17.0795 46.2115 16.9659 46.2115ZM22.2638 52.0666C21.6502 52.0666 21.1261 51.8904 20.6914 51.5382C20.2596 51.1831 19.9272 50.6703 19.6942 49.9998C19.4641 49.3294 19.3491 48.524 19.3491 47.5836C19.3491 46.6461 19.4641 45.8436 19.6942 45.176C19.9272 44.5055 20.261 43.9927 20.6957 43.6376C21.1332 43.2797 21.6559 43.1007 22.2638 43.1007C22.8718 43.1007 23.3931 43.2797 23.8278 43.6376C24.2653 43.9927 24.5991 44.5055 24.8292 45.176C25.0621 45.8436 25.1786 46.6461 25.1786 47.5836C25.1786 48.524 25.0621 49.3294 24.8292 49.9998C24.5991 50.6703 24.2667 51.1831 23.832 51.5382C23.4002 51.8904 22.8775 52.0666 22.2638 52.0666ZM22.2638 51.3507C22.9371 51.3507 23.4627 51.0225 23.8406 50.3663C24.2184 49.7072 24.4073 48.7797 24.4073 47.5836C24.4073 46.7882 24.3207 46.1092 24.1474 45.5467C23.9769 44.9814 23.7312 44.5495 23.4102 44.2512C23.092 43.9529 22.7099 43.8038 22.2638 43.8038C21.5962 43.8038 21.0721 44.1362 20.6914 44.801C20.3107 45.4629 20.1204 46.3904 20.1204 47.5836C20.1204 48.3791 20.2056 49.0581 20.3761 49.6206C20.5494 50.1831 20.7951 50.612 21.1133 50.9075C21.4343 51.2029 21.8178 51.3507 22.2638 51.3507ZM29.6232 52.0666C29.0096 52.0666 28.4854 51.8904 28.0508 51.5382C27.619 51.1831 27.2866 50.6703 27.0536 49.9998C26.8235 49.3294 26.7085 48.524 26.7085 47.5836C26.7085 46.6461 26.8235 45.8436 27.0536 45.176C27.2866 44.5055 27.6204 43.9927 28.055 43.6376C28.4925 43.2797 29.0153 43.1007 29.6232 43.1007C30.2312 43.1007 30.7525 43.2797 31.1871 43.6376C31.6246 43.9927 31.9585 44.5055 32.1886 45.176C32.4215 45.8436 32.538 46.6461 32.538 47.5836C32.538 48.524 32.4215 49.3294 32.1886 49.9998C31.9585 50.6703 31.6261 51.1831 31.1914 51.5382C30.7596 51.8904 30.2369 52.0666 29.6232 52.0666ZM29.6232 51.3507C30.2965 51.3507 30.8221 51.0225 31.1999 50.3663C31.5778 49.7072 31.7667 48.7797 31.7667 47.5836C31.7667 46.7882 31.68 46.1092 31.5067 45.5467C31.3363 44.9814 31.0906 44.5495 30.7695 44.2512C30.4513 43.9529 30.0692 43.8038 29.6232 43.8038C28.9556 43.8038 28.4315 44.1362 28.0508 44.801C27.6701 45.4629 27.4798 46.3904 27.4798 47.5836C27.4798 48.3791 27.565 49.0581 27.7354 49.6206C27.9087 50.1831 28.1545 50.612 28.4727 50.9075C28.7937 51.2029 29.1772 51.3507 29.6232 51.3507Z" fill="white"/>
<path d="M575.913 52.0666C575.299 52.0666 574.775 51.8904 574.34 51.5382C573.909 51.1831 573.576 50.6703 573.343 49.9998C573.113 49.3294 572.998 48.524 572.998 47.5836C572.998 46.6461 573.113 45.8436 573.343 45.176C573.576 44.5055 573.91 43.9927 574.345 43.6376C574.782 43.2797 575.305 43.1007 575.913 43.1007C576.521 43.1007 577.042 43.2797 577.477 43.6376C577.914 43.9927 578.248 44.5055 578.478 45.176C578.711 45.8436 578.828 46.6461 578.828 47.5836C578.828 48.524 578.711 49.3294 578.478 49.9998C578.248 50.6703 577.916 51.1831 577.481 51.5382C577.049 51.8904 576.527 52.0666 575.913 52.0666ZM575.913 51.3507C576.586 51.3507 577.112 51.0225 577.49 50.3663C577.867 49.7072 578.056 48.7797 578.056 47.5836C578.056 46.7882 577.97 46.1092 577.796 45.5467C577.626 44.9814 577.38 44.5495 577.059 44.2512C576.741 43.9529 576.359 43.8038 575.913 43.8038C575.245 43.8038 574.721 44.1362 574.34 44.801C573.96 45.4629 573.769 46.3904 573.769 47.5836C573.769 48.3791 573.855 49.0581 574.025 49.6206C574.198 50.1831 574.444 50.612 574.762 50.9075C575.083 51.2029 575.467 51.3507 575.913 51.3507ZM581.197 50.639C581.029 50.639 580.884 50.5794 580.762 50.46C580.643 50.3379 580.583 50.193 580.583 50.0254C580.583 49.8549 580.643 49.71 580.762 49.5907C580.884 49.4714 581.029 49.4118 581.197 49.4118C581.367 49.4118 581.512 49.4714 581.632 49.5907C581.751 49.71 581.811 49.8549 581.811 50.0254C581.811 50.1362 581.782 50.2385 581.725 50.3322C581.671 50.426 581.598 50.5012 581.504 50.5581C581.413 50.612 581.311 50.639 581.197 50.639ZM581.197 46.2115C581.029 46.2115 580.884 46.1518 580.762 46.0325C580.643 45.9103 580.583 45.7654 580.583 45.5978C580.583 45.4302 580.643 45.2868 580.762 45.1674C580.884 45.0453 581.029 44.9842 581.197 44.9842C581.367 44.9842 581.512 45.0453 581.632 45.1674C581.751 45.2868 581.811 45.4302 581.811 45.5978C581.811 45.7086 581.782 45.8109 581.725 45.9047C581.671 45.9984 581.598 46.0737 581.504 46.1305C581.413 46.1845 581.311 46.2115 581.197 46.2115ZM586.478 43.22V51.9473H585.681V44.0552H585.63L583.584 45.4146V44.5879L585.647 43.22H586.478ZM591.839 52.0666C591.225 52.0666 590.701 51.8904 590.266 51.5382C589.834 51.1831 589.502 50.6703 589.269 49.9998C589.039 49.3294 588.924 48.524 588.924 47.5836C588.924 46.6461 589.039 45.8436 589.269 45.176C589.502 44.5055 589.836 43.9927 590.27 43.6376C590.708 43.2797 591.231 43.1007 591.839 43.1007C592.447 43.1007 592.968 43.2797 593.403 43.6376C593.84 43.9927 594.174 44.5055 594.404 45.176C594.637 45.8436 594.753 46.6461 594.753 47.5836C594.753 48.524 594.637 49.3294 594.404 49.9998C594.174 50.6703 593.842 51.1831 593.407 51.5382C592.975 51.8904 592.452 52.0666 591.839 52.0666ZM591.839 51.3507C592.512 51.3507 593.038 51.0225 593.415 50.3663C593.793 49.7072 593.982 48.7797 593.982 47.5836C593.982 46.7882 593.895 46.1092 593.722 45.5467C593.552 44.9814 593.306 44.5495 592.985 44.2512C592.667 43.9529 592.285 43.8038 591.839 43.8038C591.171 43.8038 590.647 44.1362 590.266 44.801C589.886 45.4629 589.695 46.3904 589.695 47.5836C589.695 48.3791 589.78 49.0581 589.951 49.6206C590.124 50.1831 590.37 50.612 590.688 50.9075C591.009 51.2029 591.393 51.3507 591.839 51.3507Z" fill="white"/>
<rect opacity="0.2" x="0.657715" y="6.94727" width="587.516" height="5.21054" rx="2.60527" fill="#E8E8E8"/>
<rect opacity="0.2" x="0.657715" y="5.21045" width="244.072" height="8.68424" rx="4.34212" fill="#343435"/>
<ellipse cx="9.58855" cy="9.55266" rx="9.58855" ry="9.55266" fill="white"/>
</svg>
