<svg width="54" height="54" viewBox="0 0 54 54" fill="none" xmlns="http://www.w3.org/2000/svg">
<circle cx="26.5" cy="16.5" r="12" stroke="#FFFFF1"/>
<path d="M27.2588 31.5C33.1491 31.5 38.2291 33.5551 41.8311 36.3047C45.4587 39.0739 47.5 42.4727 47.5 45.1133C47.5 47.6851 45.5992 49.8988 42.0586 51.3691C38.5298 52.8345 33.4905 53.4976 27.542 53.002L27.4873 52.9971L27.4326 53.0049C22.0088 53.7445 16.4665 53.0866 12.2979 51.5488C10.213 50.7797 8.4967 49.7997 7.31055 48.6875C6.126 47.5767 5.50002 46.3657 5.5 45.1133C5.5 43.8234 6.08085 42.3259 7.19434 40.7822C8.30325 39.245 9.91545 37.6982 11.9092 36.3184C15.8982 33.5578 21.3649 31.5 27.2588 31.5Z" stroke="#FFFFF1"/>
<rect x="0.5" y="0.5" width="53" height="53" rx="19.5" stroke="#FFFFF1"/>
</svg>
